<?xml version="1.0" encoding="UTF-8"?>
<svg width="109px" height="165px" viewBox="0 0 109 165" version="1.1" xmlns="http://www.w3.org/2000/svg" xmlns:xlink="http://www.w3.org/1999/xlink">
    <!-- Generator: Sketch 51 (57462) - http://www.bohemiancoding.com/sketch -->
    <title>Group 2 Copy</title>
    <desc>Created with Sketch.</desc>
    <defs></defs>
    <g id="Page-1" stroke="none" stroke-width="1" fill="none" fill-rule="evenodd">
        <g id="Group-2-Copy" transform="translate(-75.000000, -47.000000)" fill="#000000">
            <path d="M137.00796,173.161002 L143.530277,177.006997 L183.04,154.554766 L183.04,163.620234 L150.294755,180.995787 L158.666906,185.932569 L183.04,170.8525 L183.04,180.244492 L159.036031,193.671186 L129.788794,177.370919 L129.768205,177.382926 L129.767081,177.358817 L75.92,147.348398 L75.92,137.139444 L129.532243,168.752818 L144.378572,160.137191 L76.2304926,121.696655 L76.2304926,111.808272 L158.777979,64.4865953 L159.885841,65.1080906 L159.948064,65.0484362 L182.852558,77.9352155 L182.852558,86.1432812 L159.938143,72.8191997 L149.563239,78.8771752 L183.04,97.4278906 L183.04,107.035195 L142.735446,82.8639688 L133.394945,88.3179498 L183.04,115.847266 L183.04,125.02293 L126.652219,92.2550723 L115.503342,98.764976 L183.04,136.675195 L183.04,146.382031 L182.984482,146.349407 L137.00796,173.161002 Z M175.607429,142.014451 L108.733854,102.717725 L98.9802178,108.412939 L165.912979,147.640337 L175.607429,142.014451 Z M159.191675,151.540847 L91.7780604,112.618326 L84.6305845,116.791785 L151.109021,156.231375 L159.191675,151.540847 Z M76.4131354,77.4504441 L128.283867,47.84 L135.484811,51.4382566 L76.4131354,86.2163035 L76.4131354,77.4504441 Z M75.92,181.703438 L75.92,172.838047 L135.806415,207.560842 L128.60547,211.159099 L75.92,181.703438 Z M75.92,94.2896094 L143.001341,56.7027244 L151.198635,59.7257381 L75.92,103.286016 L75.92,94.2896094 Z M75.92,163.980781 L75.92,154.473516 L151.349227,198.484193 L143.151933,201.507207 L75.92,163.980781 Z" id="Combined-Shape"></path>
        </g>
    </g>
</svg>