<?xml version="1.0" standalone="no"?>
<!DOCTYPE svg PUBLIC "-//W3C//DTD SVG 20010904//EN"
 "http://www.w3.org/TR/2001/REC-SVG-20010904/DTD/svg10.dtd">
<svg version="1.0" xmlns="http://www.w3.org/2000/svg"
 width="259.000000pt" height="259.000000pt" viewBox="0 0 259.000000 259.000000"
 preserveAspectRatio="xMidYMid meet">
<metadata>
Created by potrace 1.11, written by Peter Selinger 2001-2013
</metadata>
<g transform="translate(0.000000,259.000000) scale(0.100000,-0.100000)"
fill="#000000" stroke="none">
<path d="M1125 2574 c-286 -41 -527 -159 -726 -354 -201 -198 -313 -406 -369
-690 -24 -120 -22 -376 3 -487 57 -253 175 -471 347 -643 215 -215 446 -330
758 -377 72 -10 236 -9 321 2 494 69 902 405 1055 870 29 87 29 90 51 215 15
85 15 318 0 400 -47 262 -172 506 -354 690 -42 42 -94 90 -116 106 -22 16 -42
31 -45 34 -30 30 -176 111 -271 150 -83 34 -235 75 -319 86 -92 11 -250 11
-335 -2z m161 -226 l0 -218 -28 0 c-24 0 -28 4 -29 28 0 15 -2 34 -3 42 -2 8
-6 51 -10 95 -4 44 -9 100 -11 125 -3 25 -7 65 -10 89 -2 24 -2 47 0 51 2 4
24 7 47 6 l43 -1 1 -217z m105 157 c-2 -33 -5 -68 -7 -78 -2 -10 -6 -60 -10
-110 -4 -51 -8 -99 -10 -107 -1 -8 -3 -30 -3 -48 -1 -30 -4 -33 -28 -30 l-28
3 -1 218 -1 218 46 -3 46 -3 -4 -60z m-214 43 c0 -13 13 -155 19 -213 1 -16 6
-72 9 -122 l6 -93 -25 0 c-18 0 -27 6 -31 23 -6 28 -34 180 -41 227 -3 19 -12
67 -18 107 -14 79 -15 78 44 81 24 2 37 -2 37 -10z m316 6 c11 -4 13 -14 7
-42 -5 -20 -11 -55 -14 -77 -4 -22 -13 -78 -22 -125 -33 -185 -34 -190 -54
-190 -29 0 -37 26 -29 88 4 31 10 86 13 122 3 36 8 102 12 148 l7 82 33 0 c18
0 39 -3 47 -6z m-394 -194 c42 -237 42 -244 11 -248 -24 -3 -27 2 -43 65 -9
37 -31 120 -48 183 -46 171 -46 168 -13 175 16 4 34 8 39 10 6 1 13 0 16 -4 4
-3 21 -85 38 -181z m494 173 c9 -2 17 -10 16 -16 0 -7 -23 -100 -52 -207 -42
-157 -56 -195 -71 -198 -42 -8 -42 -1 19 333 8 44 15 86 15 93 0 12 15 11 73
-5z m-628 -32 c3 -11 7 -28 9 -38 2 -10 25 -94 50 -188 34 -128 42 -171 33
-177 -31 -20 -43 -6 -76 90 -19 53 -51 142 -73 196 -21 55 -38 103 -38 108 0
7 51 25 77 27 6 1 14 -8 18 -18z m716 8 c19 -7 35 -13 37 -14 2 -2 -111 -315
-143 -396 -6 -17 -40 -15 -51 2 -8 14 103 419 115 419 5 0 23 -5 42 -11z
m-751 -232 c40 -109 71 -199 69 -201 -2 -2 -14 -7 -27 -10 -20 -7 -25 0 -56
66 -19 40 -59 126 -90 192 -31 65 -56 122 -56 126 0 11 74 40 81 32 4 -4 40
-96 79 -205z m888 178 c1 -1 -22 -56 -52 -121 -120 -264 -126 -276 -142 -270
-9 3 -20 6 -25 6 -6 0 -7 10 -4 23 8 28 113 322 131 364 l13 32 38 -15 c21 -9
39 -17 41 -19z m-1049 -47 c8 -18 36 -78 61 -133 80 -170 100 -215 100 -224 0
-9 -24 -21 -40 -21 -9 0 -224 370 -218 375 10 8 65 34 73 35 6 0 17 -15 24
-32z m1114 16 c18 -9 34 -18 35 -20 2 -1 -13 -31 -33 -66 -40 -66 -41 -68
-125 -215 -53 -94 -56 -98 -84 -87 -22 9 -20 22 15 95 41 83 95 200 121 261
11 26 25 48 30 48 5 0 23 -7 41 -16z m-1120 -220 c98 -172 106 -188 89 -200
-29 -22 -7 -48 -212 246 -33 47 -60 88 -60 93 0 7 59 47 70 47 3 0 54 -84 113
-186z m1215 166 c19 -11 32 -25 30 -30 -7 -20 -239 -350 -247 -350 -4 0 -15 6
-25 13 -16 12 -9 27 89 200 59 103 110 187 114 187 3 0 21 -9 39 -20z m-1358
-120 c30 -44 86 -124 124 -177 l68 -96 -23 -18 c-24 -18 -24 -18 -49 14 -14
17 -76 91 -137 164 -62 73 -113 136 -113 140 0 8 60 53 70 53 3 0 30 -36 60
-80z m1445 58 c41 -27 41 -28 16 -57 -11 -12 -34 -41 -53 -63 -18 -23 -42 -52
-53 -64 -11 -12 -27 -31 -35 -41 -109 -133 -126 -147 -149 -119 -12 14 -16 8
149 244 47 67 86 122 88 122 1 0 18 -10 37 -22z m-1549 -94 c21 -26 44 -52 49
-58 18 -20 160 -191 174 -208 11 -15 11 -20 -2 -33 -9 -8 -19 -15 -24 -15 -10
0 -303 293 -303 303 0 9 51 56 61 57 3 0 24 -21 45 -46z m1637 21 c15 -14 27
-29 27 -33 0 -4 -68 -75 -151 -157 -126 -126 -153 -148 -167 -139 -9 6 -17 17
-17 24 0 15 256 328 270 329 6 1 23 -10 38 -24z m-1608 -198 c152 -150 153
-152 137 -174 l-17 -23 -85 71 c-150 125 -184 153 -218 184 l-33 30 28 32 c15
18 29 33 31 33 2 0 72 -69 157 -153z m1683 120 l33 -34 -64 -54 c-35 -30 -86
-72 -112 -94 -27 -22 -56 -47 -64 -56 -9 -8 -35 -30 -58 -47 l-42 -33 -15 23
c-16 22 -13 26 136 175 84 84 153 153 153 153 1 0 16 -15 33 -33z m-823 -52
c128 -15 291 -85 400 -173 85 -68 166 -169 214 -266 129 -263 114 -565 -42
-809 -44 -68 -154 -182 -220 -226 -68 -46 -202 -107 -267 -120 -30 -6 -66 -14
-80 -16 -35 -8 -180 -7 -235 1 -295 40 -553 257 -649 545 -35 103 -40 137 -40
254 -1 118 4 153 38 260 94 297 376 524 686 553 92 8 108 8 195 -3z m-1005
-65 c3 -3 32 -28 65 -55 33 -28 62 -52 65 -55 3 -3 31 -27 62 -53 51 -43 56
-50 45 -68 -6 -10 -16 -19 -21 -19 -5 0 -46 26 -90 58 -45 32 -122 87 -173
122 -54 37 -90 67 -86 74 4 6 16 23 26 38 l20 27 41 -32 c23 -17 43 -34 46
-37z m1922 -11 c-10 -8 -325 -224 -340 -233 -14 -9 -42 10 -41 28 0 6 23 30
52 53 29 22 103 84 166 137 l114 96 28 -37 c15 -21 25 -41 21 -44z m-1810
-192 c88 -62 96 -70 85 -88 -6 -10 -16 -19 -21 -19 -9 0 -355 196 -368 209 -4
4 4 24 18 44 l25 38 82 -58 c45 -31 126 -88 179 -126z m1860 135 l18 -29 -184
-107 c-100 -58 -187 -106 -192 -106 -5 0 -15 9 -21 20 -11 16 -9 22 10 36 170
124 334 231 342 224 5 -5 18 -22 27 -38z m68 -123 c0 -3 -28 -18 -62 -34 -35
-16 -123 -57 -197 -92 -74 -35 -138 -60 -142 -56 -4 4 -9 16 -11 26 -2 14 24
34 116 88 65 38 120 69 121 69 2 0 32 17 66 39 l64 39 22 -37 c13 -20 23 -39
23 -42z m-2182 40 c31 -18 69 -40 84 -50 14 -11 29 -19 31 -19 3 0 49 -25 101
-56 89 -52 95 -57 85 -77 -7 -12 -13 -23 -14 -25 -1 -1 -46 19 -101 44 -208
97 -288 135 -292 138 -5 6 31 76 40 76 5 0 35 -14 66 -31z m-17 -107 c25 -12
99 -46 164 -77 64 -30 121 -55 125 -55 13 0 -1 -41 -16 -47 -18 -7 -404 136
-404 149 0 6 7 25 16 44 15 32 17 33 43 20 14 -7 47 -23 72 -34z m2237 -38
c-6 -6 -144 -58 -314 -119 l-92 -33 -11 25 c-11 24 -8 25 126 89 76 36 165 78
198 93 l60 29 19 -39 c11 -21 17 -41 14 -45z m33 -88 c4 -17 -14 -24 -136 -58
-254 -69 -275 -74 -286 -57 -5 8 -9 19 -9 25 0 6 84 41 188 79 103 37 194 71
202 76 15 8 33 -20 41 -65z m-2186 -11 c99 -37 181 -68 182 -69 1 -1 0 -12 -4
-24 -7 -28 -18 -28 -133 4 -52 14 -135 37 -185 50 -49 14 -95 27 -102 29 -8 3
-8 14 -1 45 14 52 7 53 243 -35z m-35 -84 c107 -29 196 -54 198 -56 8 -8 -11
-53 -21 -50 -7 2 -30 6 -52 9 -40 5 -300 52 -342 61 -25 6 -29 28 -13 70 6 15
16 25 23 22 7 -2 100 -28 207 -56z m2242 14 c5 -21 6 -40 3 -43 -2 -3 -89 -20
-192 -38 -104 -18 -198 -36 -209 -38 -17 -5 -23 0 -28 20 -4 15 -5 28 -4 30 2
2 58 17 123 35 66 17 156 42 200 54 44 12 84 22 90 20 5 -1 13 -19 17 -40z
m-2307 -94 c88 -16 179 -32 203 -36 39 -6 43 -9 40 -33 -3 -24 -7 -27 -43 -26
-70 2 -386 32 -391 37 -8 8 11 87 20 87 6 0 83 -13 171 -29z m2326 7 c0 -13 2
-33 5 -45 2 -13 1 -23 -4 -24 -4 0 -19 -2 -34 -4 -14 -2 -66 -6 -115 -10 -48
-4 -104 -8 -123 -10 -153 -16 -158 -15 -163 11 -2 14 1 27 7 30 15 5 387 72
409 73 11 1 17 -7 18 -21z m-2321 -103 c19 -2 71 -7 115 -11 44 -4 89 -8 100
-9 14 -1 20 -9 20 -28 l1 -27 -221 0 -220 0 4 46 3 46 82 -7 c44 -3 97 -8 116
-10z m2331 -12 c2 -32 -1 -56 -7 -62 -2 -3 -310 -4 -404 -2 -20 1 -26 7 -28
26 -2 32 -9 31 253 51 44 4 81 7 82 8 1 0 24 2 52 4 49 2 51 2 52 -25z m-2120
-82 c22 -1 26 -5 23 -27 -1 -14 -4 -27 -6 -29 -2 -2 -50 -6 -108 -10 -58 -3
-118 -8 -135 -10 -16 -2 -65 -7 -107 -10 -77 -6 -78 -6 -79 17 -1 13 -2 32 -3
43 0 11 2 22 6 25 5 4 242 4 409 1z m2121 -12 c2 -6 2 -27 0 -46 l-4 -34 -82
6 c-44 3 -97 8 -116 10 -19 2 -69 6 -110 10 -120 10 -130 13 -128 41 l2 24
217 0 c150 0 218 -3 221 -11z m-2092 -89 c0 -22 -5 -30 -17 -31 -20 -1 -38 -4
-143 -23 -41 -8 -91 -17 -110 -20 -19 -3 -46 -8 -60 -11 -14 -3 -41 -8 -61
-11 l-36 -6 -6 43 c-3 24 -4 45 -2 47 3 4 37 7 160 17 39 3 104 9 145 13 41 4
87 8 103 10 24 2 27 -1 27 -28z m1810 15 c19 -2 71 -7 115 -10 79 -6 159 -15
161 -18 0 -1 -1 -22 -4 -45 -4 -43 -5 -44 -36 -38 -17 3 -48 8 -70 12 -21 3
-48 8 -60 10 -58 11 -143 27 -156 28 -98 13 -110 18 -110 47 l0 28 63 -5 c34
-2 78 -6 97 -9z m-1797 -82 c3 -16 4 -29 4 -30 -3 -3 -381 -101 -402 -105 -15
-2 -22 5 -29 34 -5 21 -7 41 -3 44 6 6 111 28 190 39 23 4 62 11 87 16 25 6
63 13 85 16 22 3 42 7 44 9 11 10 19 2 24 -23z m1837 -13 c244 -42 222 -34
214 -78 -4 -20 -8 -40 -10 -44 -4 -7 -410 96 -422 107 -2 1 0 14 3 28 5 16 12
23 23 21 9 -2 96 -18 192 -34z m-1816 -66 c6 -19 -10 -26 -191 -92 -109 -40
-203 -72 -209 -72 -13 0 -36 78 -25 84 3 2 86 25 185 51 98 26 188 50 200 55
24 9 31 4 40 -26z m1704 2 c48 -13 134 -36 192 -51 58 -16 108 -29 111 -31 10
-6 -14 -84 -26 -84 -15 0 -393 136 -403 145 -9 8 11 45 24 45 8 0 54 -11 102
-24z m-1679 -64 c12 -22 8 -25 -102 -76 -205 -98 -268 -126 -281 -126 -14 0
-41 68 -31 78 6 6 399 151 401 148 1 0 7 -11 13 -24z m1746 -49 c55 -19 120
-42 145 -50 25 -9 49 -19 53 -23 5 -4 0 -26 -10 -48 l-18 -40 -60 29 c-33 15
-122 57 -198 93 -135 64 -137 65 -126 90 l12 25 51 -21 c28 -11 96 -36 151
-55z m-1717 -17 c11 -24 7 -27 -126 -104 -75 -43 -160 -93 -188 -109 l-51 -31
-22 38 c-11 21 -21 40 -21 42 0 3 62 34 137 69 76 35 162 76 193 91 68 33 65
33 78 4z m1682 -66 c107 -50 195 -92 198 -94 2 -2 -7 -22 -19 -44 l-23 -39
-85 50 c-47 28 -132 77 -188 109 -98 57 -102 60 -91 84 6 13 12 24 13 24 1 0
89 -41 195 -90z m-1638 -22 c-4 -4 -84 -61 -177 -127 -101 -71 -174 -116 -180
-111 -5 5 -18 22 -28 38 l-17 30 142 82 c79 46 163 95 188 110 l45 28 17 -22
c9 -11 14 -24 10 -28z m1527 -19 c58 -34 141 -82 183 -106 l78 -44 -17 -27
c-37 -60 -24 -64 -193 58 -36 25 -95 68 -132 94 -61 42 -67 49 -55 66 6 11 16
20 21 20 5 0 57 -28 115 -61z m-1484 -39 c-4 -7 -261 -224 -315 -267 -12 -9
-20 -4 -42 26 l-27 38 151 104 c82 57 162 114 177 126 l26 22 17 -20 c10 -12
16 -25 13 -29z m1513 -85 l171 -119 -23 -31 c-29 -38 -45 -38 -88 0 -18 17
-58 50 -88 75 -179 147 -197 165 -181 184 8 9 19 16 26 14 6 -2 88 -57 183
-123z m-1611 -121 c-83 -84 -156 -150 -162 -147 -5 2 -21 18 -34 34 l-24 30
21 15 c12 8 27 20 34 27 16 15 198 167 258 216 l25 20 17 -22 c16 -21 14 -24
-135 -173z m1473 116 c3 -3 58 -50 123 -104 116 -97 117 -99 100 -120 -46 -54
-33 -61 -201 107 -155 155 -156 157 -137 175 20 19 21 19 65 -16 25 -20 47
-39 50 -42z m-1284 6 c18 -18 18 -18 -7 -47 -11 -13 -30 -35 -42 -49 -12 -14
-40 -48 -62 -75 -22 -28 -52 -63 -66 -80 -14 -16 -40 -45 -56 -64 l-30 -34
-36 29 -37 29 152 152 c84 84 157 153 161 153 5 0 15 -6 23 -14z m1297 -136
l150 -151 -28 -29 c-16 -17 -32 -30 -36 -30 -6 0 -76 80 -221 254 -32 38 -58
72 -58 77 0 7 28 28 39 29 2 0 72 -68 154 -150z m-1230 66 c-3 -6 -41 -60 -83
-121 -42 -60 -94 -135 -115 -165 -21 -30 -39 -57 -41 -59 -2 -2 -19 7 -39 20
-33 23 -44 43 -27 51 4 2 52 57 107 123 55 66 112 134 127 150 15 17 28 33 28
38 0 4 11 0 25 -9 14 -9 22 -21 18 -28z m1234 -214 c35 -40 63 -76 63 -80 0
-9 -69 -56 -74 -51 -2 2 -58 82 -126 178 l-122 175 21 18 c22 17 23 16 99 -75
41 -51 104 -125 139 -165z m-1184 194 c16 -12 9 -28 -89 -197 -58 -101 -107
-186 -109 -188 -9 -8 -70 37 -69 50 1 17 233 349 243 349 3 0 14 -7 24 -14z
m1032 -153 c65 -93 119 -173 122 -179 5 -15 -66 -59 -76 -48 -4 5 -54 90 -110
188 -95 167 -102 181 -85 193 10 7 21 13 25 13 4 0 60 -75 124 -167z m-965
117 c12 -7 8 -23 -26 -97 -22 -48 -63 -136 -90 -195 -27 -59 -54 -108 -60
-108 -13 0 -74 29 -74 36 0 3 26 51 59 107 32 56 69 120 81 142 73 132 77 136
110 115z m891 -172 c57 -100 105 -184 107 -188 2 -6 -62 -40 -77 -40 -5 0 -14
15 -22 33 -16 39 -133 292 -153 329 -13 25 -13 29 2 38 9 5 22 10 28 10 7 0
58 -82 115 -182z m-828 139 c16 -11 12 -26 -48 -192 -92 -253 -78 -228 -122
-210 -20 9 -39 18 -42 20 -7 8 176 395 187 395 5 0 16 -6 25 -13z m742 -170
c46 -98 85 -181 89 -184 15 -15 3 -32 -34 -47 -50 -20 -47 -20 -53 7 -2 12
-34 103 -71 201 -36 99 -66 183 -66 187 0 8 29 18 44 15 5 -1 46 -82 91 -179z
m-668 145 c10 -6 2 -49 -33 -177 -58 -219 -66 -245 -74 -245 -7 0 -73 21 -78
25 -1 1 13 44 32 96 19 52 50 138 69 191 20 54 38 102 42 108 7 12 25 13 42 2z
m590 -192 c39 -107 72 -198 72 -202 1 -10 -79 -31 -87 -23 -11 10 -112 408
-106 417 3 5 16 8 27 6 19 -3 33 -33 94 -198z m-134 138 c59 -212 97 -356 97
-365 0 -9 -80 -37 -86 -30 -1 1 -5 20 -8 41 -5 33 -38 220 -50 281 -21 111
-22 106 31 124 1 1 8 -23 16 -51z m-379 17 c-2 -29 -15 -129 -19 -135 -2 -3
-6 -27 -9 -54 -4 -27 -9 -52 -11 -55 -1 -3 -6 -29 -10 -57 -8 -66 -20 -109
-28 -108 -4 1 -25 4 -45 8 l-38 6 55 210 c55 206 57 211 81 208 18 -2 25 -9
24 -23z m71 -87 c-3 -57 -8 -110 -10 -118 -2 -8 -7 -58 -10 -110 -4 -52 -10
-99 -12 -104 -5 -7 -80 -3 -88 6 -2 1 3 37 11 78 8 41 24 129 35 195 19 108
26 145 28 153 1 1 13 2 27 2 l26 0 -7 -102z m225 98 c0 -2 7 -39 15 -82 8 -44
17 -92 19 -109 3 -16 14 -76 24 -132 l19 -101 -21 -6 c-12 -3 -33 -6 -48 -6
-26 0 -28 3 -29 38 0 20 -2 44 -4 52 -1 8 -6 56 -9 107 -4 51 -11 124 -15 163
-5 46 -4 71 3 74 14 6 46 7 46 2z m-144 -223 l-1 -218 -24 -3 c-12 -2 -33 -1
-46 2 -25 6 -25 4 -10 151 3 28 8 85 11 127 3 42 7 85 9 95 2 10 4 28 4 41 1
17 7 22 29 22 l28 0 0 -217z m75 190 c1 -16 3 -37 4 -48 1 -11 5 -58 9 -105
10 -123 17 -202 21 -227 4 -25 -23 -38 -66 -31 l-24 3 -1 218 -2 217 29 0 c25
0 29 -4 30 -27z"/>
<path d="M1150 1486 c-41 -12 -100 -34 -130 -50 -65 -32 -190 -122 -190 -136
0 -15 128 -105 199 -140 76 -38 197 -70 260 -70 139 1 336 84 455 192 20 18
20 18 0 36 -173 157 -408 224 -594 168z m230 -16 c136 -69 139 -260 5 -338
-33 -19 -51 -22 -102 -19 -52 2 -69 8 -100 34 -50 40 -74 82 -78 140 -12 145
144 250 275 183z m-239 -31 c-74 -77 -72 -208 4 -284 l34 -33 -37 10 c-95 26
-299 151 -284 174 11 18 140 103 190 126 58 26 116 46 120 43 2 -2 -10 -18
-27 -36z m347 15 c79 -32 164 -81 212 -123 l35 -31 -40 -35 c-59 -51 -166
-107 -259 -136 l-29 -9 30 30 c87 85 85 222 -4 305 -35 32 -27 31 55 -1z"/>
<path d="M1239 1361 c-33 -27 -33 -95 0 -122 31 -25 82 -24 109 1 78 73 -26
189 -109 121z"/>
<path d="M1266 938 c-31 -53 -33 -79 -8 -101 25 -23 55 -21 77 3 16 18 17 25
6 58 -7 21 -21 49 -31 62 l-17 23 -27 -45z"/>
</g>
</svg>
