<?xml version="1.0" standalone="no"?>
<!DOCTYPE svg PUBLIC "-//W3C//DTD SVG 20010904//EN"
 "http://www.w3.org/TR/2001/REC-SVG-20010904/DTD/svg10.dtd">
<svg version="1.0" xmlns="http://www.w3.org/2000/svg"
 width="165.000000pt" height="165.000000pt" viewBox="0 0 165.000000 165.000000"
 preserveAspectRatio="xMidYMid meet">
<metadata>
Created by potrace 1.11, written by Peter Selinger 2001-2013
</metadata>
<g transform="translate(0.000000,165.000000) scale(0.100000,-0.100000)"
fill="#000000" stroke="none">
<path d="M545 1494 l-250 -144 -3 -46 c-3 -40 -1 -46 14 -40 9 3 144 82 300
173 l284 167 -32 18 c-18 9 -40 17 -48 17 -8 -1 -127 -66 -265 -145z"/>
<path d="M628 1371 l-333 -186 -3 -48 c-2 -26 0 -47 4 -47 11 0 743 424 744
431 0 3 -18 13 -39 21 l-40 16 -333 -187z"/>
<path d="M702 1242 l-413 -237 3 -54 3 -54 323 -182 c178 -100 327 -186 333
-192 11 -11 -117 -87 -134 -80 -7 3 -127 73 -267 156 l-255 151 -3 -52 c-2
-28 0 -54 5 -58 4 -4 191 -109 415 -234 l407 -227 121 67 120 66 0 49 c0 27
-2 49 -5 49 -2 0 -57 -32 -121 -72 l-116 -71 -34 18 c-19 10 -34 21 -34 24 0
3 69 42 153 87 l152 81 3 51 3 51 -196 -111 c-189 -107 -196 -110 -226 -97
-39 16 -53 6 214 160 l207 121 0 53 0 53 -326 183 c-180 101 -327 188 -328
192 -1 4 20 20 46 34 l46 25 277 -161 c152 -88 279 -161 281 -161 2 0 4 22 4
48 l0 48 -240 133 c-132 73 -238 137 -235 141 3 4 20 17 38 28 l34 19 197
-118 c108 -66 199 -119 202 -119 3 0 4 23 2 52 l-3 52 -157 85 c-87 47 -157
89 -158 92 0 7 75 49 89 49 7 0 59 -27 116 -60 57 -33 106 -60 109 -60 4 0 6
19 6 43 l0 42 -116 65 c-64 36 -119 66 -122 67 -4 1 -193 -105 -420 -235z
m296 -377 c150 -88 272 -163 272 -166 0 -9 -79 -51 -87 -46 -36 20 -622 363
-636 372 -16 11 -14 15 25 38 l43 25 56 -31 c30 -18 178 -104 327 -192z m-227
-62 c179 -104 325 -192 326 -198 0 -5 -12 -17 -27 -27 l-28 -16 -303 179
c-167 99 -315 187 -328 196 l-23 15 28 19 c16 10 29 19 30 19 1 0 147 -84 325
-187z"/>
<path d="M290 527 l0 -52 335 -187 c334 -186 336 -187 371 -175 19 7 36 17 37
22 1 5 -113 76 -253 158 -140 82 -308 180 -372 218 l-118 68 0 -52z"/>
<path d="M290 346 c0 -24 6 -48 13 -53 6 -6 123 -72 259 -148 255 -141 266
-145 312 -112 16 12 -9 29 -278 185 -163 95 -298 172 -301 172 -3 0 -5 -20 -5
-44z"/>
</g>
</svg>
